<svg width="306" height="311" viewBox="0 0 306 311" fill="none" xmlns="http://www.w3.org/2000/svg">
<rect width="306" height="311" fill="#1E1E1E"/>
<rect x="0.5" y="0.5" width="305" height="310" fill="black" stroke="white"/>
<g clip-path="url(#clip0_0_1)">
<rect width="258" height="200" transform="translate(24 24)" fill="black"/>
<path d="M273.4 130.667H32.6C27.44 130.667 24 133.333 24 137.333V217.333C24 221.333 27.44 224 32.6 224H273.4C278.56 224 282 221.333 282 217.333V137.333C282 133.333 278.56 130.667 273.4 130.667ZM273.4 217.333H32.6V137.333H273.4V217.333Z" fill="white"/>
<path d="M58.4 144H41.2V150.667H58.4V144Z" fill="white"/>
<path d="M58.4 204H41.2V210.667H58.4V204Z" fill="white"/>
<path d="M84.2 204H67V210.667H84.2V204Z" fill="white"/>
<path d="M213.2 204H92.8V210.667H213.2V204Z" fill="white"/>
<path d="M84.2 144H67V150.667H84.2V144Z" fill="white"/>
<path d="M110 144H92.8V150.667H110V144Z" fill="white"/>
<path d="M135.8 144H118.6V150.667H135.8V144Z" fill="white"/>
<path d="M161.6 144H144.4V150.667H161.6V144Z" fill="white"/>
<path d="M187.4 144H170.2V150.667H187.4V144Z" fill="white"/>
<path d="M213.2 144H196V150.667H213.2V144Z" fill="white"/>
<path d="M239 144H221.8V150.667H239V144Z" fill="white"/>
<path d="M239 204H221.8V210.667H239V204Z" fill="white"/>
<path d="M264.8 204H247.6V210.667H264.8V204Z" fill="white"/>
<path d="M264.8 144H247.6V150.667H264.8V144Z" fill="white"/>
<path d="M54.1 160.667H45.5V167.333H54.1V160.667Z" fill="white"/>
<path d="M71.3 160.667H62.7V167.333H71.3V160.667Z" fill="white"/>
<path d="M88.5 160.667H79.9V167.333H88.5V160.667Z" fill="white"/>
<path d="M105.7 160.667H97.1V167.333H105.7V160.667Z" fill="white"/>
<path d="M122.9 160.667H114.3V167.333H122.9V160.667Z" fill="white"/>
<path d="M140.1 160.667H131.5V167.333H140.1V160.667Z" fill="white"/>
<path d="M157.3 160.667H148.7V167.333H157.3V160.667Z" fill="white"/>
<path d="M174.5 160.667H165.9V167.333H174.5V160.667Z" fill="white"/>
<path d="M191.7 160.667H183.1V167.333H191.7V160.667Z" fill="white"/>
<path d="M208.9 160.667H200.3V167.333H208.9V160.667Z" fill="white"/>
<path d="M226.1 160.667H217.5V167.333H226.1V160.667Z" fill="white"/>
<path d="M243.3 160.667H234.7V167.333H243.3V160.667Z" fill="white"/>
<path d="M260.5 160.667H251.9V167.333H260.5V160.667Z" fill="white"/>
<path d="M54.1 174H45.5V180.667H54.1V174Z" fill="white"/>
<path d="M71.3 174H62.7V180.667H71.3V174Z" fill="white"/>
<path d="M88.5 174H79.9V180.667H88.5V174Z" fill="white"/>
<path d="M105.7 174H97.1V180.667H105.7V174Z" fill="white"/>
<path d="M122.9 174H114.3V180.667H122.9V174Z" fill="white"/>
<path d="M140.1 174H131.5V180.667H140.1V174Z" fill="white"/>
<path d="M157.3 174H148.7V180.667H157.3V174Z" fill="white"/>
<path d="M174.5 174H165.9V180.667H174.5V174Z" fill="white"/>
<path d="M191.7 174H183.1V180.667H191.7V174Z" fill="white"/>
<path d="M208.9 174H200.3V180.667H208.9V174Z" fill="white"/>
<path d="M226.1 174H217.5V180.667H226.1V174Z" fill="white"/>
<path d="M54.1 187.333H45.5V194H54.1V187.333Z" fill="white"/>
<path d="M71.3 187.333H62.7V194H71.3V187.333Z" fill="white"/>
<path d="M88.5 187.333H79.9V194H88.5V187.333Z" fill="white"/>
<path d="M105.7 187.333H97.1V194H105.7V187.333Z" fill="white"/>
<path d="M122.9 187.333H114.3V194H122.9V187.333Z" fill="white"/>
<path d="M140.1 187.333H131.5V194H140.1V187.333Z" fill="white"/>
<path d="M157.3 187.333H148.7V194H157.3V187.333Z" fill="white"/>
<path d="M174.5 187.333H165.9V194H174.5V187.333Z" fill="white"/>
<path d="M191.7 187.333H183.1V194H191.7V187.333Z" fill="white"/>
<path d="M208.9 187.333H200.3V194H208.9V187.333Z" fill="white"/>
<path d="M226.1 187.333H217.5V194H226.1V187.333Z" fill="white"/>
<path d="M234.7 194H256.2C258.78 194 260.5 192.667 260.5 190.667V174H251.9V187.333H234.7V194Z" fill="white"/>
<path d="M243.3 174H234.7V180.667H243.3V174Z" fill="white"/>
<path d="M277.7 24H28.3C25.72 24 24 25.3333 24 27.3333V120.667H32.6V57.3333H273.4V120.667H282V27.3333C282 25.3333 280.28 24 277.7 24ZM32.6 50.6667V30.6667H273.4V50.6667H32.6Z" fill="white"/>
<path d="M49.8 37.3333H41.2V44H49.8V37.3333Z" fill="white"/>
<path d="M67 37.3333H58.4V44H67V37.3333Z" fill="white"/>
<path d="M84.2 37.3333H75.6V44H84.2V37.3333Z" fill="white"/>
<path d="M84.2 64H75.6V120.667H84.2V64Z" fill="white"/>
<path d="M62.7 67.3333H45.5V74H62.7V67.3333Z" fill="white"/>
<path d="M62.7 87.3333H45.5V94H62.7V87.3333Z" fill="white"/>
<path d="M62.7 107.333H45.5V114H62.7V107.333Z" fill="white"/>
<path d="M114.3 67.3333H97.1V74H114.3V67.3333Z" fill="white"/>
<path d="M191.7 67.3333H122.9V74H191.7V67.3333Z" fill="white"/>
<path d="M217.5 67.3333H200.3V74H217.5V67.3333Z" fill="white"/>
<path d="M260.5 67.3333H226.1V74H260.5V67.3333Z" fill="white"/>
<path d="M157.3 87.3333H97.1V94H157.3V87.3333Z" fill="white"/>
<path d="M157.3 107.333H140.1V114H157.3V107.333Z" fill="white"/>
<path d="M131.5 107.333H97.1V114H131.5V107.333Z" fill="white"/>
<path d="M188.69 88.3333L175.79 98.3333C174.07 99.6667 174.07 101.667 175.79 103L188.69 113L194.71 108.333L184.82 100.667L194.71 93L188.69 88.3333Z" fill="white"/>
<path d="M237.71 113L250.61 103C252.33 101.667 252.33 99.6667 250.61 98.3333L237.71 88.3333L231.69 93L241.58 100.667L231.69 108.333L237.71 113Z" fill="white"/>
<path d="M217.886 85.9053L200.772 112.439L208.464 115.421L225.578 88.8867L217.886 85.9053Z" fill="white"/>
</g>
<line x1="24" y1="288" x2="282" y2="288" stroke="white" stroke-width="6"/>
<line x1="24" y1="245" x2="282" y2="245" stroke="white" stroke-width="6"/>
<line x1="280" y1="248" x2="280" y2="286" stroke="white" stroke-width="4"/>
<line x1="26" y1="248" x2="26" y2="286" stroke="white" stroke-width="4"/>
<path d="M106.862 279V256.6H114.702L118.574 276.12H119.15L123.022 256.6H130.862V279H126.766V259.704H126.19L122.35 279H115.374L111.534 259.704H110.958V279H106.862ZM143.785 279.448C140.969 279.448 138.729 278.68 137.065 277.144C135.401 275.587 134.569 273.368 134.569 270.488V265.112C134.569 262.232 135.401 260.024 137.065 258.488C138.729 256.931 140.969 256.152 143.785 256.152C146.601 256.152 148.841 256.931 150.505 258.488C152.169 260.024 153.001 262.232 153.001 265.112V270.488C153.001 273.368 152.169 275.587 150.505 277.144C148.841 278.68 146.601 279.448 143.785 279.448ZM143.785 275.672C145.363 275.672 146.59 275.213 147.465 274.296C148.339 273.379 148.777 272.152 148.777 270.616V264.984C148.777 263.448 148.339 262.221 147.465 261.304C146.59 260.387 145.363 259.928 143.785 259.928C142.227 259.928 141.001 260.387 140.105 261.304C139.23 262.221 138.793 263.448 138.793 264.984V270.616C138.793 272.152 139.23 273.379 140.105 274.296C141.001 275.213 142.227 275.672 143.785 275.672ZM156.706 279V256.6H160.93V279H156.706ZM165.143 279V256.6H169.367V275.16H179.607V279H165.143ZM190.502 279.448C188.667 279.448 187.089 279.117 185.766 278.456C184.465 277.773 183.462 276.813 182.758 275.576C182.075 274.317 181.734 272.835 181.734 271.128V256.6H185.958V271.256C185.958 272.621 186.342 273.699 187.11 274.488C187.899 275.277 189.03 275.672 190.502 275.672C191.974 275.672 193.094 275.277 193.862 274.488C194.651 273.699 195.046 272.621 195.046 271.256V256.6H199.27V271.128C199.27 272.835 198.918 274.317 198.214 275.576C197.531 276.813 196.529 277.773 195.206 278.456C193.905 279.117 192.337 279.448 190.502 279.448Z" fill="white"/>
<defs>
<clipPath id="clip0_0_1">
<rect width="258" height="200" fill="white" transform="translate(24 24)"/>
</clipPath>
</defs>
</svg>
